<svg version="1.1" xmlns="http://www.w3.org/2000/svg" xmlns:xlink="http://www.w3.org/1999/xlink" width="36px" height="36px" viewBox="0 0 36 36" class="canvas" style="float:left">
  <g id="symbol" class="logo-entity" transform="translate(0, 0) scale(.35)">
    <g class="logo-entity-inner">
      <g data-noun-id="17048" data-attribution="" transform="scale(0.9635861590352376)">
        <g>
          <path
            fill="#ffffff"
            d="M89.818,8.062C85.842,0.629,76.589-2.17,69.156,1.813c-6.551,3.513-9.484,11.11-7.377,17.956L35.397,33.895   c-2.8-3.419-7-5.653-11.768-5.653c-8.435,0-15.266,6.842-15.266,15.269c0,8.435,6.831,15.273,15.266,15.273   c3.19,0,6.158-0.994,8.609-2.672l21.719,20.653c-3.685,6.01-2.81,13.973,2.497,19.032c6.109,5.812,15.77,5.564,21.584-0.545   c5.808-6.121,5.572-15.777-0.542-21.585c-5.385-5.127-13.523-5.526-19.368-1.367L36.477,51.705c1.514-2.38,2.422-5.168,2.422-8.195   c0-1.469-0.276-2.848-0.657-4.188l26.479-14.189c4.556,5.393,12.392,7.06,18.856,3.603C91.006,24.758,93.809,15.502,89.818,8.062z"
            transform="translate(-8.36299991607666,2.1700000762939453)"></path>
        </g>
      </g>
    </g>
  </g>
</svg>
